<svg width="19" height="23" viewBox="0 0 19 23" fill="none" xmlns="http://www.w3.org/2000/svg">
<path fill-rule="evenodd" clip-rule="evenodd" d="M18.3481 16.8544C18.0096 17.9779 17.4759 19.1014 16.7468 20.225C15.6272 21.9866 14.5119 22.8674 13.401 22.8674C12.9757 22.8674 12.3681 22.7236 11.5783 22.436C10.8319 22.1484 10.1766 22.0046 9.61249 22.0046C9.08306 22.0046 8.46684 22.1529 7.76382 22.4495C7.0608 22.7551 6.48797 22.9079 6.04533 22.9079C4.72609 22.9079 3.41987 21.7439 2.12666 19.416C0.850814 17.0701 0.212891 14.8096 0.212891 12.6345C0.212891 10.5853 0.703267 8.90448 1.68402 7.59223C2.65609 6.29794 3.88854 5.6508 5.38137 5.6508C6.00628 5.6508 6.77439 5.78562 7.68571 6.05527C8.58835 6.32491 9.18721 6.45973 9.48231 6.45973C9.87287 6.45973 10.4934 6.30693 11.344 6.00134C12.2293 5.69574 12.98 5.54295 13.5963 5.54295C14.6291 5.54295 15.5534 5.83506 16.3693 6.41928C16.8206 6.74285 17.2719 7.19226 17.7232 7.76749C17.0376 8.36969 16.5429 8.89999 16.2391 9.35838C15.6749 10.2033 15.3929 11.1335 15.3929 12.1492C15.3929 13.2637 15.6923 14.2659 16.2912 15.1557C16.89 16.0455 17.5757 16.6117 18.3481 16.8544ZM13.4538 1.03993C13.4538 1.5882 13.3279 2.19939 13.0762 2.87349C12.8158 3.5476 12.4123 4.16777 11.8655 4.73402C11.3968 5.21938 10.9281 5.54295 10.4594 5.70473C10.1383 5.8036 9.68698 5.88 9.10547 5.93393C9.13151 4.59471 9.47 3.43974 10.1209 2.46903C10.7632 1.50731 11.8481 0.842189 13.3756 0.473679C13.3843 0.500643 13.3952 0.550077 13.4082 0.621982C13.4212 0.693886 13.4321 0.743321 13.4407 0.770285C13.4407 0.806237 13.4429 0.851177 13.4473 0.905106C13.4516 0.959034 13.4538 1.00397 13.4538 1.03993Z" fill="white"/>
</svg>
